<svg width="22" height="22" viewBox="0 0 22 22" fill="none" xmlns="http://www.w3.org/2000/svg">
<path fill-rule="evenodd" clip-rule="evenodd" d="M11 20C15.9706 20 20 15.9706 20 11C20 6.02944 15.9706 2 11 2C6.02944 2 2 6.02944 2 11C2 15.9706 6.02944 20 11 20ZM22 11C22 17.0751 17.0751 22 11 22C4.92487 22 4.30546e-07 17.0751 9.61651e-07 11C1.49276e-06 4.92487 4.92487 -1.49276e-06 11 -9.61651e-07C17.0751 -4.30546e-07 22 4.92487 22 11ZM11 16C10.4477 16 10 15.5523 10 15L10 11C10 10.4477 10.4477 10 11 10C11.5523 10 12 10.4477 12 11L12 15C12 15.5523 11.5523 16 11 16ZM12 7C12 7.55228 11.5523 8 11 8L10.99 8C10.4377 8 9.99 7.55228 9.99 7C9.99 6.44771 10.4377 6 10.99 6L11 6C11.5523 6 12 6.44771 12 7Z" fill="#0E0D0C"/>
</svg>
