<svg width="18" height="18" viewBox="0 0 18 18" fill="none" xmlns="http://www.w3.org/2000/svg">
<path d="M11.4999 14.94C12.2107 15.1464 12.9472 15.2508 13.6874 15.25C14.8777 15.2517 16.0526 14.9803 17.1215 14.4567C17.1531 13.7098 16.9404 12.9729 16.5155 12.3578C16.0906 11.7427 15.4768 11.2828 14.7671 11.0479C14.0574 10.813 13.2904 10.8159 12.5825 11.0562C11.8746 11.2964 11.2642 11.7609 10.844 12.3792M11.4999 14.94V14.9375C11.4999 14.01 11.2615 13.1375 10.844 12.3792M11.4999 14.94V15.0283C9.89609 15.9942 8.0587 16.5032 6.18652 16.5C4.24402 16.5 2.42652 15.9625 0.874857 15.0283L0.874024 14.9375C0.873385 13.7579 1.26537 12.6116 1.98818 11.6794C2.71098 10.7472 3.7235 10.082 4.8661 9.78883C6.00869 9.49564 7.21638 9.59107 8.29874 10.0601C9.38111 10.5291 10.2766 11.345 10.844 12.3792M8.99986 4.3125C8.99986 5.05842 8.70354 5.77379 8.1761 6.30124C7.64865 6.82868 6.93328 7.125 6.18736 7.125C5.44144 7.125 4.72607 6.82868 4.19862 6.30124C3.67117 5.77379 3.37486 5.05842 3.37486 4.3125C3.37486 3.56658 3.67117 2.85121 4.19862 2.32376C4.72607 1.79632 5.44144 1.5 6.18736 1.5C6.93328 1.5 7.64865 1.79632 8.1761 2.32376C8.70354 2.85121 8.99986 3.56658 8.99986 4.3125ZM15.8749 6.1875C15.8749 6.76766 15.6444 7.32406 15.2342 7.7343C14.8239 8.14453 14.2675 8.375 13.6874 8.375C13.1072 8.375 12.5508 8.14453 12.1406 7.7343C11.7303 7.32406 11.4999 6.76766 11.4999 6.1875C11.4999 5.60734 11.7303 5.05094 12.1406 4.6407C12.5508 4.23047 13.1072 4 13.6874 4C14.2675 4 14.8239 4.23047 15.2342 4.6407C15.6444 5.05094 15.8749 5.60734 15.8749 6.1875Z" stroke="black" stroke-width="1.5" stroke-linecap="round" stroke-linejoin="round"/>
</svg>
